<svg width="20" height="20" viewBox="0 0 20 20" fill="none" xmlns="http://www.w3.org/2000/svg">
<path d="M6.56655 1.66675L3.53467 2.2259V6.3404L6.56655 6.98395L9.60903 5.7707V2.70065L6.56655 1.66675Z" fill="url(#paint0_linear_83_38413)"/>
<path d="M3.53467 2.22862V6.34313L6.59835 6.98668V1.71167L3.53467 2.22862ZM4.82799 6.02663L3.96931 5.85783V2.69282L4.82799 2.55567V6.02663ZM6.16371 6.26928L5.17782 6.11103V2.49237L6.16371 2.32357V6.26928Z" fill="#341A6E"/>
<path d="M13.1276 1.72021L10.0957 2.27937V6.39387L13.1276 7.03742L16.1595 5.81362V2.75412L13.1276 1.72021Z" fill="url(#paint1_linear_83_38413)"/>
<path d="M10.0957 2.27843V6.39293L13.1382 7.03648V1.76147L10.0957 2.27843ZM11.3784 6.07643L10.5197 5.90763V2.74263L11.3784 2.60548V6.07643ZM12.7141 6.31908L11.7283 6.16083V2.54218L12.7141 2.36283V6.31908Z" fill="#341A6E"/>
<path d="M3.45913 7.3457L0.427246 7.90485V12.0194L3.45913 12.6629L6.50161 11.4497V8.3796L3.45913 7.3457Z" fill="url(#paint2_linear_83_38413)"/>
<path d="M0.416504 7.90285V11.9857L3.48019 12.6293V7.35425L0.416504 7.90285ZM1.69922 11.7114L0.840543 11.5321V8.36705L1.69922 8.21935V11.7114ZM3.04555 11.9857L2.05966 11.8275V8.1666L3.04555 7.9978V11.9857Z" fill="#341A6E"/>
<path d="M10.0001 7.30054L6.96826 7.85969V11.9742L10.0001 12.6283L13.032 11.4045V8.33444L10.0001 7.30054Z" fill="url(#paint3_linear_83_38413)"/>
<path d="M6.96826 7.86065V11.9857L10.0213 12.6293V7.35425L6.96826 7.86065ZM8.25098 11.6692L7.3923 11.4899V8.32485L8.25098 8.17715V11.6692ZM9.58671 11.9013L8.60081 11.7431V8.1244L9.58671 7.9556V11.9013Z" fill="#341A6E"/>
<path d="M16.5407 7.35425L13.5088 7.9134V12.0279L16.5407 12.6715L19.5831 11.4582V8.38815L16.5407 7.35425Z" fill="url(#paint4_linear_83_38413)"/>
<path d="M13.5088 7.9134V11.9857L16.5725 12.6293V7.35425L13.5088 7.9134ZM14.8021 11.722L13.9434 11.5426V8.3776L14.8021 8.2299V11.722ZM16.1378 11.9541L15.1519 11.7958V8.17715L16.1378 8.00835V11.9541Z" fill="#341A6E"/>
<path d="M6.49184 13.0828L3.45996 13.6314V17.7459L6.49184 18.4L9.53432 17.1762V14.1167L6.49184 13.0828Z" fill="url(#paint5_linear_83_38413)"/>
<path d="M3.45996 13.6316V17.7461L6.52364 18.4002V13.0408L3.45996 13.6316ZM4.75328 17.4401L3.8946 17.2608V14.0958L4.75328 13.9481V17.4401ZM6.089 17.6828L5.10311 17.5245V13.8953L6.089 13.7265V17.6828Z" fill="#341A6E"/>
<path d="M13.0421 13.1238L10.0103 13.6829V17.7974L13.0421 18.441L16.0846 17.2277V14.1577L13.0421 13.1238Z" fill="url(#paint6_linear_83_38413)"/>
<path d="M10.0103 13.6859V17.8004L13.0739 18.444V13.1689L10.0103 13.6859ZM11.3036 17.4944L10.4449 17.3151V14.1501L11.3036 14.0024V17.4944ZM12.6393 17.7266L11.6534 17.5683V13.9496L12.6393 13.7808V17.7266Z" fill="#341A6E"/>
<defs>
<linearGradient id="paint0_linear_83_38413" x1="3.53467" y1="4.32535" x2="9.60903" y2="4.32535" gradientUnits="userSpaceOnUse">
<stop stop-color="#B77AF4"/>
<stop offset="1" stop-color="#773ADC"/>
</linearGradient>
<linearGradient id="paint1_linear_83_38413" x1="65.4578" y1="21.8724" x2="100.143" y2="21.8724" gradientUnits="userSpaceOnUse">
<stop stop-color="#B77AF4"/>
<stop offset="1" stop-color="#773ADC"/>
</linearGradient>
<linearGradient id="paint2_linear_83_38413" x1="0.48799" y1="55.8386" x2="35.2333" y2="55.8386" gradientUnits="userSpaceOnUse">
<stop stop-color="#B77AF4"/>
<stop offset="1" stop-color="#773ADC"/>
</linearGradient>
<linearGradient id="paint3_linear_83_38413" x1="44.4423" y1="55.6766" x2="79.127" y2="55.6766" gradientUnits="userSpaceOnUse">
<stop stop-color="#B77AF4"/>
<stop offset="1" stop-color="#773ADC"/>
</linearGradient>
<linearGradient id="paint4_linear_83_38413" x1="88.527" y1="55.9003" x2="123.333" y2="55.9003" gradientUnits="userSpaceOnUse">
<stop stop-color="#B77AF4"/>
<stop offset="1" stop-color="#773ADC"/>
</linearGradient>
<linearGradient id="paint5_linear_83_38413" x1="20.8934" y1="90.5013" x2="55.6995" y2="90.5013" gradientUnits="userSpaceOnUse">
<stop stop-color="#B77AF4"/>
<stop offset="1" stop-color="#773ADC"/>
</linearGradient>
<linearGradient id="paint6_linear_83_38413" x1="64.9832" y1="90.755" x2="99.7893" y2="90.755" gradientUnits="userSpaceOnUse">
<stop stop-color="#B77AF4"/>
<stop offset="1" stop-color="#773ADC"/>
</linearGradient>
</defs>
</svg>
