<svg width="20" height="20" viewBox="0 0 20 20" fill="none" xmlns="http://www.w3.org/2000/svg">
<g clip-path="url(#clip0_83_38407)">
<path d="M20 9.83331C19.9549 8.77609 19.5396 7.76837 18.8266 6.98638C18.1137 6.2044 17.1486 5.69792 16.1 5.55554C16.0449 4.06025 15.4007 2.64743 14.3079 1.62537C13.215 0.603305 11.7623 0.0549583 10.2667 0.0999808C9.06214 0.0777386 7.88047 0.430414 6.88517 1.10921C5.88987 1.788 5.13014 2.75936 4.71111 3.88887C3.43894 4.04248 2.26401 4.64715 1.3996 5.5931C0.535194 6.53906 0.038613 7.76359 0 9.04442C0.0549858 10.4848 0.678884 11.8445 1.7349 12.8255C2.79091 13.8066 4.19286 14.3288 5.63333 14.2778H6.12222H15.2444C15.3255 14.2893 15.4078 14.2893 15.4889 14.2778C16.6712 14.2694 17.8038 13.8005 18.6461 12.9707C19.4883 12.1408 19.974 11.0154 20 9.83331Z" fill="url(#paint0_linear_83_38407)"/>
<path d="M10.3999 9.3999H9.5332V16.2777H10.3999V9.3999Z" fill="#B3B3B3"/>
<path d="M9.96687 9.63345C11.2433 9.63345 12.278 8.59873 12.278 7.32234C12.278 6.04595 11.2433 5.01123 9.96687 5.01123C8.69048 5.01123 7.65576 6.04595 7.65576 7.32234C7.65576 8.59873 8.69048 9.63345 9.96687 9.63345Z" fill="#F2F2F2"/>
<path d="M11.2556 15.7H8.67781C8.22985 15.7 7.8667 16.0631 7.8667 16.5111V19.0888C7.8667 19.5368 8.22985 19.9 8.67781 19.9H11.2556C11.7036 19.9 12.0667 19.5368 12.0667 19.0888V16.5111C12.0667 16.0631 11.7036 15.7 11.2556 15.7Z" fill="url(#paint1_linear_83_38407)"/>
</g>
<defs>
<linearGradient id="paint0_linear_83_38407" x1="10" y1="14.2778" x2="10" y2="0.0999811" gradientUnits="userSpaceOnUse">
<stop stop-color="#198AB3"/>
<stop offset="0.44" stop-color="#28B7DB"/>
<stop offset="0.78" stop-color="#32D4F5"/>
</linearGradient>
<linearGradient id="paint1_linear_83_38407" x1="9.9667" y1="19.9" x2="9.9667" y2="15.7" gradientUnits="userSpaceOnUse">
<stop stop-color="#198AB3"/>
<stop offset="0.44" stop-color="#28B7DB"/>
<stop offset="0.78" stop-color="#32D4F5"/>
</linearGradient>
<clipPath id="clip0_83_38407">
<rect width="20" height="20" fill="white"/>
</clipPath>
</defs>
</svg>
