<svg width="64" height="64" viewBox="0 0 64 64" fill="none" xmlns="http://www.w3.org/2000/svg">
<path d="M50.6666 12C48.4575 12 46.6666 13.7909 46.6666 16C46.6666 18.2091 48.4575 20 50.6666 20C52.8758 20 54.6666 18.2091 54.6666 16C54.6666 13.7909 52.8758 12 50.6666 12ZM42.6666 16C42.6666 11.5817 46.2484 8 50.6666 8C55.0849 8 58.6666 11.5817 58.6666 16C58.6666 20.4183 55.0849 24 50.6666 24C50.2352 24 49.8118 23.9658 49.3988 23.9001L43.9639 32.8558C44.8284 34.1335 45.3333 35.6745 45.3333 37.3333C45.3333 41.7516 41.7516 45.3333 37.3333 45.3333C34.9257 45.3333 32.7664 44.2698 31.2998 42.5868L21.3222 47.5748C21.3296 47.7156 21.3333 47.8574 21.3333 48C21.3333 52.4183 17.7516 56 13.3333 56C8.91504 56 5.33331 52.4183 5.33331 48C5.33331 43.5817 8.91504 40 13.3333 40C16.1764 40 18.6731 41.4831 20.092 43.7178L29.5093 39.01C29.394 38.4693 29.3333 37.9084 29.3333 37.3333C29.3333 32.9151 32.915 29.3333 37.3333 29.3333C38.6194 29.3333 39.8346 29.6368 40.9112 30.1761L45.7054 22.2762C43.8543 20.811 42.6666 18.5442 42.6666 16ZM37.3333 33.3333C35.1242 33.3333 33.3333 35.1242 33.3333 37.3333C33.3333 39.5425 35.1242 41.3333 37.3333 41.3333C39.5425 41.3333 41.3333 39.5425 41.3333 37.3333C41.3333 35.1242 39.5425 33.3333 37.3333 33.3333ZM13.3333 44C11.1242 44 9.33331 45.7909 9.33331 48C9.33331 50.2091 11.1242 52 13.3333 52C15.5425 52 17.3333 50.2091 17.3333 48C17.3333 45.7909 15.5425 44 13.3333 44Z" fill="#17253D"/>
</svg>
