<svg width="64" height="64" viewBox="0 0 64 64" fill="none" xmlns="http://www.w3.org/2000/svg">
<path d="M16.6667 9.33325C15.5621 9.33325 14.6667 10.2287 14.6667 11.3333V54.6666H20V47.3333C20 45.4923 21.4924 43.9999 23.3333 43.9999H40.6667C42.5076 43.9999 44 45.4923 44 47.3333V54.6666H49.3333V31.3333C49.3333 30.2287 48.4379 29.3333 47.3333 29.3333H42C40.8954 29.3333 40 28.4378 40 27.3333V11.3333C40 10.2287 39.1046 9.33325 38 9.33325H16.6667ZM24 47.9999V54.6666H30V47.9999H24ZM34 47.9999V54.6666H40V47.9999H34ZM51.3333 58.6666H12.6667C11.5621 58.6666 10.6667 57.7712 10.6667 56.6666V11.3333C10.6667 8.01954 13.3529 5.33325 16.6667 5.33325H38C41.3137 5.33325 44 8.01954 44 11.3333V25.3333H47.3333C50.647 25.3333 53.3333 28.0195 53.3333 31.3333V56.6666C53.3333 57.7712 52.4379 58.6666 51.3333 58.6666ZM20 17.3333C20 15.8605 21.1939 14.6666 22.6667 14.6666C24.1394 14.6666 25.3333 15.8605 25.3333 17.3333C25.3333 18.806 24.1394 19.9999 22.6667 19.9999C21.1939 19.9999 20 18.806 20 17.3333ZM22.6667 33.3333C21.1939 33.3333 20 34.5272 20 35.9999C20 37.4727 21.1939 38.6666 22.6667 38.6666C24.1394 38.6666 25.3333 37.4727 25.3333 35.9999C25.3333 34.5272 24.1394 33.3333 22.6667 33.3333ZM22.6667 23.9999C21.1939 23.9999 20 25.1938 20 26.6666C20 28.1393 21.1939 29.3333 22.6667 29.3333C24.1394 29.3333 25.3333 28.1393 25.3333 26.6666C25.3333 25.1938 24.1394 23.9999 22.6667 23.9999ZM32 14.6666C30.5272 14.6666 29.3333 15.8605 29.3333 17.3333C29.3333 18.806 30.5272 19.9999 32 19.9999C33.4728 19.9999 34.6667 18.806 34.6667 17.3333C34.6667 15.8605 33.4728 14.6666 32 14.6666ZM32 33.3333C30.5272 33.3333 29.3333 34.5272 29.3333 35.9999C29.3333 37.4727 30.5272 38.6666 32 38.6666C33.4728 38.6666 34.6667 37.4727 34.6667 35.9999C34.6667 34.5272 33.4728 33.3333 32 33.3333ZM41.3333 33.3333C39.8606 33.3333 38.6667 34.5272 38.6667 35.9999C38.6667 37.4727 39.8606 38.6666 41.3333 38.6666C42.8061 38.6666 44 37.4727 44 35.9999C44 34.5272 42.8061 33.3333 41.3333 33.3333ZM32 23.9999C30.5272 23.9999 29.3333 25.1938 29.3333 26.6666C29.3333 28.1393 30.5272 29.3333 32 29.3333C33.4728 29.3333 34.6667 28.1393 34.6667 26.6666C34.6667 25.1938 33.4728 23.9999 32 23.9999Z" fill="#17253D"/>
</svg>
