<svg width="64" height="64" viewBox="0 0 64 64" fill="none" xmlns="http://www.w3.org/2000/svg">
<path d="M22.6667 13.9468C22.6667 10.6331 25.353 7.94678 28.6667 7.94678H35.3333C38.647 7.94678 41.3333 10.6331 41.3333 13.9468V18.6668H50C53.3137 18.6668 56 21.3531 56 24.6668V54.0001C56 55.1047 55.1046 56.0001 54 56.0001H10C8.89543 56.0001 8 55.1047 8 54.0001V32.6668C8 29.3531 10.6863 26.6668 14 26.6668H22.6667V13.9468ZM26.6667 52.0001H37.3333V13.9468C37.3333 12.8422 36.4379 11.9468 35.3333 11.9468H28.6667C27.5621 11.9468 26.6667 12.8422 26.6667 13.9468V52.0001ZM22.6667 30.6668H14C12.8954 30.6668 12 31.5622 12 32.6668V52.0001H22.6667V30.6668ZM41.3333 52.0001H52V24.6668C52 23.5622 51.1046 22.6668 50 22.6668H41.3333V52.0001Z" fill="#17253D"/>
</svg>
